<mxfile host="Electron" agent="Mozilla/5.0 (Windows NT 10.0; Win64; x64) AppleWebKit/537.36 (KHTML, like Gecko) draw.io/26.0.4 Chrome/128.0.6613.186 Electron/32.2.5 Safari/537.36" version="26.0.4">
  <diagram id="8fR3vlSnVLAmuQqtyXcf" name="Page-1">
    <mxGraphModel dx="2614" dy="2338" grid="1" gridSize="10" guides="1" tooltips="1" connect="1" arrows="1" fold="1" page="1" pageScale="1" pageWidth="850" pageHeight="1100" math="0" shadow="0">
      <root>
        <mxCell id="0" />
        <mxCell id="1" parent="0" />
        <mxCell id="itJ0qn7zO5T9spUM37sT-4" value="" style="rounded=1;whiteSpace=wrap;html=1;" parent="1" vertex="1">
          <mxGeometry x="1660" y="720" width="350" height="320" as="geometry" />
        </mxCell>
        <mxCell id="itJ0qn7zO5T9spUM37sT-1" value="" style="rounded=1;whiteSpace=wrap;html=1;" parent="1" vertex="1">
          <mxGeometry x="1690" y="-130" width="630" height="490" as="geometry" />
        </mxCell>
        <mxCell id="55xLRYJCAfBFtzbybxeJ-20" value="" style="rounded=1;whiteSpace=wrap;html=1;" parent="1" vertex="1">
          <mxGeometry x="1810" y="-20" width="190" height="260" as="geometry" />
        </mxCell>
        <mxCell id="1I_q_eXfddDbX86g2_ze-16" value="" style="endArrow=classic;html=1;rounded=0;exitX=1;exitY=0.5;exitDx=0;exitDy=0;entryX=0;entryY=0.5;entryDx=0;entryDy=0;" parent="1" source="GO2d8nJrmRO8L2RQWDfl-18" target="1I_q_eXfddDbX86g2_ze-49" edge="1">
          <mxGeometry width="50" height="50" relative="1" as="geometry">
            <mxPoint x="830" y="430.00000000000045" as="sourcePoint" />
            <mxPoint x="1225" y="940" as="targetPoint" />
          </mxGeometry>
        </mxCell>
        <mxCell id="1I_q_eXfddDbX86g2_ze-24" value="" style="endArrow=classic;html=1;rounded=0;entryX=0;entryY=0.5;entryDx=0;entryDy=0;exitX=1;exitY=0.5;exitDx=0;exitDy=0;" parent="1" source="GO2d8nJrmRO8L2RQWDfl-12" target="1I_q_eXfddDbX86g2_ze-26" edge="1">
          <mxGeometry width="50" height="50" relative="1" as="geometry">
            <mxPoint x="1140" y="770" as="sourcePoint" />
            <mxPoint x="830" y="160" as="targetPoint" />
          </mxGeometry>
        </mxCell>
        <mxCell id="1I_q_eXfddDbX86g2_ze-26" value="OFR Annexe 4 chi. 1 &amp;amp; 2 (RW 250% ou 400%)" style="rounded=1;whiteSpace=wrap;html=1;" parent="1" vertex="1">
          <mxGeometry x="1815" y="260" width="170" height="40" as="geometry" />
        </mxCell>
        <mxCell id="1I_q_eXfddDbX86g2_ze-31" value="" style="endArrow=classic;html=1;rounded=0;exitX=1;exitY=0.5;exitDx=0;exitDy=0;entryX=0;entryY=0.5;entryDx=0;entryDy=0;" parent="1" source="GO2d8nJrmRO8L2RQWDfl-7" edge="1">
          <mxGeometry width="50" height="50" relative="1" as="geometry">
            <mxPoint x="480" y="690" as="sourcePoint" />
            <mxPoint x="500" y="690" as="targetPoint" />
          </mxGeometry>
        </mxCell>
        <mxCell id="1I_q_eXfddDbX86g2_ze-32" value="Déduction par seuils" style="rounded=1;whiteSpace=wrap;html=1;" parent="1" vertex="1">
          <mxGeometry x="190" y="680" width="120" height="60" as="geometry" />
        </mxCell>
        <mxCell id="1I_q_eXfddDbX86g2_ze-36" value="&lt;br&gt;&lt;span style=&quot;color: rgb(240, 240, 240); font-family: Helvetica; font-size: 12px; font-style: normal; font-variant-ligatures: normal; font-variant-caps: normal; font-weight: 400; letter-spacing: normal; orphans: 2; text-align: center; text-indent: 0px; text-transform: none; widows: 2; word-spacing: 0px; -webkit-text-stroke-width: 0px; background-color: rgb(42, 42, 42); text-decoration-thickness: initial; text-decoration-style: initial; text-decoration-color: initial; float: none; display: inline !important;&quot;&gt;Au dessus du 1er seuil&lt;/span&gt;&lt;br&gt;" style="rhombus;whiteSpace=wrap;html=1;" parent="1" vertex="1">
          <mxGeometry x="740" y="670" width="100" height="80" as="geometry" />
        </mxCell>
        <mxCell id="1I_q_eXfddDbX86g2_ze-37" value="" style="endArrow=classic;html=1;rounded=0;exitX=1;exitY=0.5;exitDx=0;exitDy=0;entryX=0;entryY=0.5;entryDx=0;entryDy=0;" parent="1" source="1I_q_eXfddDbX86g2_ze-36" target="1I_q_eXfddDbX86g2_ze-41" edge="1">
          <mxGeometry width="50" height="50" relative="1" as="geometry">
            <mxPoint x="970" y="712.5" as="sourcePoint" />
            <mxPoint x="980" y="660" as="targetPoint" />
          </mxGeometry>
        </mxCell>
        <mxCell id="1I_q_eXfddDbX86g2_ze-38" value="" style="endArrow=classic;html=1;rounded=0;exitX=1;exitY=0.5;exitDx=0;exitDy=0;entryX=0;entryY=0.5;entryDx=0;entryDy=0;" parent="1" source="1I_q_eXfddDbX86g2_ze-36" target="GO2d8nJrmRO8L2RQWDfl-12" edge="1">
          <mxGeometry width="50" height="50" relative="1" as="geometry">
            <mxPoint x="850" y="522.5" as="sourcePoint" />
            <mxPoint x="860" y="540" as="targetPoint" />
          </mxGeometry>
        </mxCell>
        <mxCell id="1I_q_eXfddDbX86g2_ze-39" value="OUI" style="text;html=1;strokeColor=none;fillColor=none;align=center;verticalAlign=middle;whiteSpace=wrap;rounded=0;" parent="1" vertex="1">
          <mxGeometry x="980" y="630" width="110" height="30" as="geometry" />
        </mxCell>
        <mxCell id="1I_q_eXfddDbX86g2_ze-40" value="NON" style="text;html=1;strokeColor=none;fillColor=none;align=center;verticalAlign=middle;whiteSpace=wrap;rounded=0;" parent="1" vertex="1">
          <mxGeometry x="960" y="720" width="60" height="30" as="geometry" />
        </mxCell>
        <mxCell id="1I_q_eXfddDbX86g2_ze-41" value="Déduit du capital" style="rounded=1;whiteSpace=wrap;html=1;" parent="1" vertex="1">
          <mxGeometry x="1840" y="465" width="120" height="60" as="geometry" />
        </mxCell>
        <mxCell id="1I_q_eXfddDbX86g2_ze-44" value="&lt;div&gt;RW = 250%&lt;/div&gt;&lt;div&gt;Annexe 4 chi. 4&lt;/div&gt;" style="rounded=1;whiteSpace=wrap;html=1;" parent="1" vertex="1">
          <mxGeometry x="1780" y="830" width="120" height="60" as="geometry" />
        </mxCell>
        <mxCell id="1I_q_eXfddDbX86g2_ze-45" value="Au dessus du seuil 2" style="rhombus;whiteSpace=wrap;html=1;" parent="1" vertex="1">
          <mxGeometry x="750" y="850" width="100" height="80" as="geometry" />
        </mxCell>
        <mxCell id="1I_q_eXfddDbX86g2_ze-49" value="RW = 250%&lt;br&gt;art. 40 al.2&lt;div&gt;Annexe 3 chi. 6.5&lt;/div&gt;" style="rounded=1;whiteSpace=wrap;html=1;" parent="1" vertex="1">
          <mxGeometry x="1780" y="910" width="120" height="60" as="geometry" />
        </mxCell>
        <mxCell id="1I_q_eXfddDbX86g2_ze-56" value="" style="endArrow=classic;html=1;rounded=0;entryX=0;entryY=0.5;entryDx=0;entryDy=0;exitX=1;exitY=0.5;exitDx=0;exitDy=0;" parent="1" source="GO2d8nJrmRO8L2RQWDfl-7" target="GDaCa5R69GqSdmVa65ae-3" edge="1">
          <mxGeometry width="50" height="50" relative="1" as="geometry">
            <mxPoint x="880" y="930" as="sourcePoint" />
            <mxPoint x="770" y="940" as="targetPoint" />
          </mxGeometry>
        </mxCell>
        <mxCell id="1I_q_eXfddDbX86g2_ze-57" value="" style="endArrow=classic;html=1;rounded=0;exitX=1;exitY=0.5;exitDx=0;exitDy=0;entryX=0;entryY=0.5;entryDx=0;entryDy=0;" parent="1" source="1I_q_eXfddDbX86g2_ze-45" target="1I_q_eXfddDbX86g2_ze-41" edge="1">
          <mxGeometry width="50" height="50" relative="1" as="geometry">
            <mxPoint x="930" y="700" as="sourcePoint" />
            <mxPoint x="1140" y="650" as="targetPoint" />
          </mxGeometry>
        </mxCell>
        <mxCell id="1I_q_eXfddDbX86g2_ze-60" value="OUI" style="text;html=1;strokeColor=none;fillColor=none;align=center;verticalAlign=middle;whiteSpace=wrap;rounded=0;" parent="1" vertex="1">
          <mxGeometry x="300" y="480" width="110" height="30" as="geometry" />
        </mxCell>
        <mxCell id="1I_q_eXfddDbX86g2_ze-61" value="NON" style="text;html=1;strokeColor=none;fillColor=none;align=center;verticalAlign=middle;whiteSpace=wrap;rounded=0;" parent="1" vertex="1">
          <mxGeometry x="1810" y="370" width="60" height="30" as="geometry" />
        </mxCell>
        <mxCell id="1I_q_eXfddDbX86g2_ze-62" value="OUI" style="text;html=1;strokeColor=none;fillColor=none;align=center;verticalAlign=middle;whiteSpace=wrap;rounded=0;" parent="1" vertex="1">
          <mxGeometry x="840" y="820" width="110" height="30" as="geometry" />
        </mxCell>
        <mxCell id="1I_q_eXfddDbX86g2_ze-63" value="NON" style="text;html=1;strokeColor=none;fillColor=none;align=center;verticalAlign=middle;whiteSpace=wrap;rounded=0;" parent="1" vertex="1">
          <mxGeometry x="1145" y="940" width="60" height="30" as="geometry" />
        </mxCell>
        <mxCell id="55xLRYJCAfBFtzbybxeJ-12" value="" style="endArrow=classic;html=1;rounded=0;exitX=1;exitY=0.5;exitDx=0;exitDy=0;entryX=0;entryY=0.5;entryDx=0;entryDy=0;" parent="1" source="55xLRYJCAfBFtzbybxeJ-17" target="GO2d8nJrmRO8L2RQWDfl-1" edge="1">
          <mxGeometry width="50" height="50" relative="1" as="geometry">
            <mxPoint x="-110" y="330" as="sourcePoint" />
            <mxPoint x="160" y="330" as="targetPoint" />
          </mxGeometry>
        </mxCell>
        <mxCell id="55xLRYJCAfBFtzbybxeJ-13" value="RW = 250%&lt;br&gt;ann. 4 chi. 4" style="rounded=1;whiteSpace=wrap;html=1;" parent="1" vertex="1">
          <mxGeometry x="1840" y="80" width="120" height="60" as="geometry" />
        </mxCell>
        <mxCell id="55xLRYJCAfBFtzbybxeJ-14" value="RW = 400%&lt;br&gt;ann. 4 chi. 3" style="rounded=1;whiteSpace=wrap;html=1;" parent="1" vertex="1">
          <mxGeometry x="1840" width="120" height="60" as="geometry" />
        </mxCell>
        <mxCell id="55xLRYJCAfBFtzbybxeJ-16" value="RW = 1&#39;250%&lt;br&gt;ann. 4 chi. 5" style="rounded=1;whiteSpace=wrap;html=1;" parent="1" vertex="1">
          <mxGeometry x="1840" y="160" width="120" height="60" as="geometry" />
        </mxCell>
        <mxCell id="55xLRYJCAfBFtzbybxeJ-17" value="&lt;span style=&quot;color: rgb(240, 240, 240); font-family: Helvetica; font-size: 12px; font-style: normal; font-variant-ligatures: normal; font-variant-caps: normal; font-weight: 400; letter-spacing: normal; orphans: 2; text-align: center; text-indent: 0px; text-transform: none; widows: 2; word-spacing: 0px; -webkit-text-stroke-width: 0px; background-color: rgb(42, 42, 42); text-decoration-thickness: initial; text-decoration-style: initial; text-decoration-color: initial; float: none; display: inline !important;&quot;&gt;&lt;b style=&quot;color: rgb(0, 0, 0); background-color: rgb(251, 251, 251);&quot;&gt;Participation&lt;/b&gt;&lt;br style=&quot;color: rgb(0, 0, 0); background-color: rgb(251, 251, 251);&quot;&gt;&lt;br style=&quot;color: rgb(0, 0, 0); background-color: rgb(251, 251, 251);&quot;&gt;&lt;span style=&quot;color: rgb(0, 0, 0); background-color: rgb(251, 251, 251);&quot;&gt;secteur financier&lt;/span&gt;&lt;br style=&quot;color: rgb(0, 0, 0); background-color: rgb(251, 251, 251);&quot;&gt;&lt;br style=&quot;color: rgb(0, 0, 0); background-color: rgb(251, 251, 251);&quot;&gt;&lt;span style=&quot;color: rgb(0, 0, 0); background-color: rgb(251, 251, 251);&quot;&gt;ParticipationLevel &amp;gt; 0&lt;/span&gt;&lt;br&gt;&lt;/span&gt;" style="rhombus;whiteSpace=wrap;html=1;" parent="1" vertex="1">
          <mxGeometry x="-460" y="230" width="220" height="180" as="geometry" />
        </mxCell>
        <mxCell id="55xLRYJCAfBFtzbybxeJ-18" value="OUI" style="text;html=1;strokeColor=none;fillColor=none;align=center;verticalAlign=middle;whiteSpace=wrap;rounded=0;" parent="1" vertex="1">
          <mxGeometry x="-190" y="380" width="110" height="30" as="geometry" />
        </mxCell>
        <mxCell id="55xLRYJCAfBFtzbybxeJ-19" value="" style="endArrow=classic;html=1;rounded=0;exitX=1;exitY=0.5;exitDx=0;exitDy=0;entryX=0;entryY=0.5;entryDx=0;entryDy=0;" parent="1" source="55xLRYJCAfBFtzbybxeJ-17" target="55xLRYJCAfBFtzbybxeJ-20" edge="1">
          <mxGeometry width="50" height="50" relative="1" as="geometry">
            <mxPoint x="720" y="250" as="sourcePoint" />
            <mxPoint x="280" y="10" as="targetPoint" />
          </mxGeometry>
        </mxCell>
        <mxCell id="55xLRYJCAfBFtzbybxeJ-21" value="NON" style="text;html=1;strokeColor=none;fillColor=none;align=center;verticalAlign=middle;whiteSpace=wrap;rounded=0;" parent="1" vertex="1">
          <mxGeometry x="310" y="90" width="60" height="30" as="geometry" />
        </mxCell>
        <mxCell id="itJ0qn7zO5T9spUM37sT-2" value="CRSABIS_08" style="text;html=1;strokeColor=none;fillColor=none;align=center;verticalAlign=middle;whiteSpace=wrap;rounded=0;fontStyle=1;fontSize=19;" parent="1" vertex="1">
          <mxGeometry x="1837.5" y="-90" width="135" height="30" as="geometry" />
        </mxCell>
        <mxCell id="itJ0qn7zO5T9spUM37sT-5" value="CRSABIS_14" style="text;html=1;strokeColor=none;fillColor=none;align=center;verticalAlign=middle;whiteSpace=wrap;rounded=0;fontStyle=1;fontSize=19;" parent="1" vertex="1">
          <mxGeometry x="1767.5" y="760" width="135" height="30" as="geometry" />
        </mxCell>
        <mxCell id="itJ0qn7zO5T9spUM37sT-6" value="" style="endArrow=classic;html=1;rounded=0;exitX=1;exitY=0.5;exitDx=0;exitDy=0;entryX=0;entryY=0.5;entryDx=0;entryDy=0;" parent="1" source="1I_q_eXfddDbX86g2_ze-26" target="itJ0qn7zO5T9spUM37sT-7" edge="1">
          <mxGeometry width="50" height="50" relative="1" as="geometry">
            <mxPoint x="1680" y="400" as="sourcePoint" />
            <mxPoint x="2140" y="510" as="targetPoint" />
          </mxGeometry>
        </mxCell>
        <mxCell id="itJ0qn7zO5T9spUM37sT-7" value="Of which at lines 44 and 46" style="rounded=1;whiteSpace=wrap;html=1;" parent="1" vertex="1">
          <mxGeometry x="2100" y="260" width="170" height="40" as="geometry" />
        </mxCell>
        <mxCell id="GO2d8nJrmRO8L2RQWDfl-1" value="&lt;div&gt;A conslider&lt;/div&gt;&lt;div&gt;et&lt;/div&gt;&lt;span style=&quot;color: rgb(240, 240, 240); font-family: Helvetica; font-size: 12px; font-style: normal; font-variant-ligatures: normal; font-variant-caps: normal; font-weight: 400; letter-spacing: normal; orphans: 2; text-align: center; text-indent: 0px; text-transform: none; widows: 2; word-spacing: 0px; -webkit-text-stroke-width: 0px; background-color: rgb(42, 42, 42); text-decoration-thickness: initial; text-decoration-style: initial; text-decoration-color: initial; float: none; display: inline !important;&quot;&gt;Déduction intégrale&lt;br&gt;imposée par la FINMA ?&lt;br&gt;&lt;br&gt;Art.32 al.4&lt;/span&gt;" style="rhombus;whiteSpace=wrap;html=1;gradientColor=none;" parent="1" vertex="1">
          <mxGeometry x="-100" y="470" width="220" height="160" as="geometry" />
        </mxCell>
        <mxCell id="GO2d8nJrmRO8L2RQWDfl-4" value="OUI" style="text;html=1;strokeColor=none;fillColor=none;align=center;verticalAlign=middle;whiteSpace=wrap;rounded=0;" parent="1" vertex="1">
          <mxGeometry x="200" y="305" width="110" height="30" as="geometry" />
        </mxCell>
        <mxCell id="GO2d8nJrmRO8L2RQWDfl-5" value="" style="endArrow=classic;html=1;rounded=0;exitX=1;exitY=0.5;exitDx=0;exitDy=0;entryX=0;entryY=0.5;entryDx=0;entryDy=0;" parent="1" source="GO2d8nJrmRO8L2RQWDfl-1" target="1I_q_eXfddDbX86g2_ze-32" edge="1">
          <mxGeometry width="50" height="50" relative="1" as="geometry">
            <mxPoint x="-230" y="330" as="sourcePoint" />
            <mxPoint x="290" y="520" as="targetPoint" />
          </mxGeometry>
        </mxCell>
        <mxCell id="GO2d8nJrmRO8L2RQWDfl-6" value="NON" style="text;html=1;strokeColor=none;fillColor=none;align=center;verticalAlign=middle;whiteSpace=wrap;rounded=0;" parent="1" vertex="1">
          <mxGeometry x="120" y="590" width="110" height="30" as="geometry" />
        </mxCell>
        <mxCell id="GO2d8nJrmRO8L2RQWDfl-7" value="ParticipationLevel &amp;lt;= 0.1" style="rhombus;whiteSpace=wrap;html=1;gradientColor=none;" parent="1" vertex="1">
          <mxGeometry x="350" y="660" width="220" height="100" as="geometry" />
        </mxCell>
        <mxCell id="GO2d8nJrmRO8L2RQWDfl-9" value="" style="endArrow=classic;html=1;rounded=0;entryX=0;entryY=0.5;entryDx=0;entryDy=0;exitX=1;exitY=0.5;exitDx=0;exitDy=0;" parent="1" source="1I_q_eXfddDbX86g2_ze-32" target="GO2d8nJrmRO8L2RQWDfl-7" edge="1">
          <mxGeometry width="50" height="50" relative="1" as="geometry">
            <mxPoint x="290" y="530" as="sourcePoint" />
            <mxPoint x="420" y="440" as="targetPoint" />
          </mxGeometry>
        </mxCell>
        <mxCell id="GO2d8nJrmRO8L2RQWDfl-10" value="" style="endArrow=classic;html=1;rounded=0;entryX=0;entryY=0.5;entryDx=0;entryDy=0;exitX=1;exitY=0.5;exitDx=0;exitDy=0;" parent="1" source="GO2d8nJrmRO8L2RQWDfl-7" target="1I_q_eXfddDbX86g2_ze-36" edge="1">
          <mxGeometry width="50" height="50" relative="1" as="geometry">
            <mxPoint x="320" y="720" as="sourcePoint" />
            <mxPoint x="430" y="720" as="targetPoint" />
          </mxGeometry>
        </mxCell>
        <mxCell id="GO2d8nJrmRO8L2RQWDfl-11" value="" style="endArrow=classic;html=1;rounded=0;entryX=0;entryY=0.5;entryDx=0;entryDy=0;exitX=1;exitY=0.5;exitDx=0;exitDy=0;" parent="1" source="GO2d8nJrmRO8L2RQWDfl-1" target="1I_q_eXfddDbX86g2_ze-41" edge="1">
          <mxGeometry width="50" height="50" relative="1" as="geometry">
            <mxPoint x="320" y="720" as="sourcePoint" />
            <mxPoint x="430" y="720" as="targetPoint" />
          </mxGeometry>
        </mxCell>
        <mxCell id="GO2d8nJrmRO8L2RQWDfl-12" value="A consolider" style="rhombus;whiteSpace=wrap;html=1;" parent="1" vertex="1">
          <mxGeometry x="1032.5" y="695" width="100" height="80" as="geometry" />
        </mxCell>
        <mxCell id="GO2d8nJrmRO8L2RQWDfl-13" value="OUI" style="text;html=1;strokeColor=none;fillColor=none;align=center;verticalAlign=middle;whiteSpace=wrap;rounded=0;" parent="1" vertex="1">
          <mxGeometry x="1120" y="650" width="110" height="30" as="geometry" />
        </mxCell>
        <mxCell id="GO2d8nJrmRO8L2RQWDfl-16" value="" style="endArrow=classic;html=1;rounded=0;entryX=0;entryY=0.5;entryDx=0;entryDy=0;exitX=1;exitY=0.5;exitDx=0;exitDy=0;" parent="1" source="GO2d8nJrmRO8L2RQWDfl-12" target="1I_q_eXfddDbX86g2_ze-44" edge="1">
          <mxGeometry width="50" height="50" relative="1" as="geometry">
            <mxPoint x="840" y="440.00000000000045" as="sourcePoint" />
            <mxPoint x="1705" y="510" as="targetPoint" />
          </mxGeometry>
        </mxCell>
        <mxCell id="GO2d8nJrmRO8L2RQWDfl-17" value="NON" style="text;html=1;strokeColor=none;fillColor=none;align=center;verticalAlign=middle;whiteSpace=wrap;rounded=0;" parent="1" vertex="1">
          <mxGeometry x="1330" y="745" width="60" height="30" as="geometry" />
        </mxCell>
        <mxCell id="GO2d8nJrmRO8L2RQWDfl-18" value="Au dessus du seuil 3" style="rhombus;whiteSpace=wrap;html=1;" parent="1" vertex="1">
          <mxGeometry x="1090" y="905" width="100" height="80" as="geometry" />
        </mxCell>
        <mxCell id="GO2d8nJrmRO8L2RQWDfl-19" value="NON" style="text;html=1;strokeColor=none;fillColor=none;align=center;verticalAlign=middle;whiteSpace=wrap;rounded=0;" parent="1" vertex="1">
          <mxGeometry x="920" y="920" width="60" height="30" as="geometry" />
        </mxCell>
        <mxCell id="GO2d8nJrmRO8L2RQWDfl-20" value="" style="endArrow=classic;html=1;rounded=0;exitX=1;exitY=0.5;exitDx=0;exitDy=0;entryX=0;entryY=0.5;entryDx=0;entryDy=0;" parent="1" source="GO2d8nJrmRO8L2RQWDfl-18" target="1I_q_eXfddDbX86g2_ze-41" edge="1">
          <mxGeometry width="50" height="50" relative="1" as="geometry">
            <mxPoint x="860" y="900" as="sourcePoint" />
            <mxPoint x="943" y="950" as="targetPoint" />
          </mxGeometry>
        </mxCell>
        <mxCell id="GO2d8nJrmRO8L2RQWDfl-21" value="OUI" style="text;html=1;strokeColor=none;fillColor=none;align=center;verticalAlign=middle;whiteSpace=wrap;rounded=0;" parent="1" vertex="1">
          <mxGeometry x="760" y="770" width="60" height="30" as="geometry" />
        </mxCell>
        <mxCell id="GO2d8nJrmRO8L2RQWDfl-26" value="OUI" style="text;html=1;strokeColor=none;fillColor=none;align=center;verticalAlign=middle;whiteSpace=wrap;rounded=0;" parent="1" vertex="1">
          <mxGeometry x="1330" y="840" width="60" height="30" as="geometry" />
        </mxCell>
        <mxCell id="GDaCa5R69GqSdmVa65ae-1" value="OUI" style="text;html=1;strokeColor=none;fillColor=none;align=center;verticalAlign=middle;whiteSpace=wrap;rounded=0;" vertex="1" parent="1">
          <mxGeometry x="630" y="670" width="110" height="30" as="geometry" />
        </mxCell>
        <mxCell id="GDaCa5R69GqSdmVa65ae-2" value="NON" style="text;html=1;strokeColor=none;fillColor=none;align=center;verticalAlign=middle;whiteSpace=wrap;rounded=0;" vertex="1" parent="1">
          <mxGeometry x="580" y="745" width="110" height="30" as="geometry" />
        </mxCell>
        <mxCell id="GDaCa5R69GqSdmVa65ae-3" value="A consolider&lt;br&gt;Art. 38 al.2" style="rhombus;whiteSpace=wrap;html=1;" vertex="1" parent="1">
          <mxGeometry x="630" y="800" width="100" height="80" as="geometry" />
        </mxCell>
        <mxCell id="GDaCa5R69GqSdmVa65ae-4" value="" style="endArrow=classic;html=1;rounded=0;exitX=1;exitY=0.5;exitDx=0;exitDy=0;entryX=0;entryY=0.5;entryDx=0;entryDy=0;" edge="1" parent="1" source="GDaCa5R69GqSdmVa65ae-3" target="1I_q_eXfddDbX86g2_ze-45">
          <mxGeometry width="50" height="50" relative="1" as="geometry">
            <mxPoint x="860" y="900" as="sourcePoint" />
            <mxPoint x="960" y="930" as="targetPoint" />
          </mxGeometry>
        </mxCell>
        <mxCell id="GDaCa5R69GqSdmVa65ae-5" value="NON" style="text;html=1;strokeColor=none;fillColor=none;align=center;verticalAlign=middle;whiteSpace=wrap;rounded=0;" vertex="1" parent="1">
          <mxGeometry x="690" y="860" width="60" height="30" as="geometry" />
        </mxCell>
        <mxCell id="GDaCa5R69GqSdmVa65ae-6" value="" style="endArrow=classic;html=1;rounded=0;exitX=1;exitY=0.5;exitDx=0;exitDy=0;entryX=0;entryY=0.5;entryDx=0;entryDy=0;" edge="1" parent="1" source="GDaCa5R69GqSdmVa65ae-3" target="1I_q_eXfddDbX86g2_ze-26">
          <mxGeometry width="50" height="50" relative="1" as="geometry">
            <mxPoint x="860" y="900" as="sourcePoint" />
            <mxPoint x="1850" y="505" as="targetPoint" />
          </mxGeometry>
        </mxCell>
        <mxCell id="GDaCa5R69GqSdmVa65ae-7" value="" style="endArrow=classic;html=1;rounded=0;entryX=0;entryY=0.5;entryDx=0;entryDy=0;" edge="1" parent="1" target="GO2d8nJrmRO8L2RQWDfl-18">
          <mxGeometry width="50" height="50" relative="1" as="geometry">
            <mxPoint x="850" y="890" as="sourcePoint" />
            <mxPoint x="760" y="900" as="targetPoint" />
          </mxGeometry>
        </mxCell>
      </root>
    </mxGraphModel>
  </diagram>
</mxfile>
